<?xml version="1.0" encoding="UTF-8" standalone="no"?>
<!-- Created with Inkscape (http://www.inkscape.org/) -->

<svg
   width="249.99998"
   height="250.00002"
   viewBox="0 0 66.145828 66.145837"
   version="1.1"
   id="svg1"
   xmlns="http://www.w3.org/2000/svg"
   xmlns:svg="http://www.w3.org/2000/svg">
  <defs
     id="defs1" />
  <g
     id="layer1">
    <path
       d="m 40.429573,35.390604 a 7.7500563,7.7500563 0 0 1 -7.356657,5.432227 7.7500563,7.7500563 0 0 1 -7.356657,-5.432227 H 0.93482665 A 32.303974,32.303974 0 0 0 33.072916,65.376887 32.303974,32.303974 0 0 0 65.211006,35.390604 Z"
       style="fill:#ebe3e3;stroke-width:0.799999;paint-order:fill markers stroke"
       id="path10" />
    <path
       d="M 33.072916,0.7689453 A 32.303974,32.303974 0 0 0 0.93482665,30.755228 H 25.716259 a 7.7500563,7.7500563 0 0 1 7.356657,-5.432226 7.7500563,7.7500563 0 0 1 7.38818,5.432226 H 65.283353 A 32.303974,32.303974 0 0 0 33.072916,0.7689453 Z"
       style="fill:#ebe3e3;stroke-width:0.799999;paint-order:fill markers stroke"
       id="path7" />
    <path
       d="m 33.072916,26.898296 a 6.1749019,6.1749019 0 0 0 -6.17462,6.17462 6.1749019,6.1749019 0 0 0 6.17462,6.17462 6.1749019,6.1749019 0 0 0 6.17462,-6.17462 6.1749019,6.1749019 0 0 0 -6.17462,-6.17462 z m 0,2.468126 a 3.7063377,3.7063377 0 0 1 3.706494,3.706494 3.7063377,3.7063377 0 0 1 -3.706494,3.706494 3.7063377,3.7063377 0 0 1 -3.706494,-3.706494 3.7063377,3.7063377 0 0 1 3.706494,-3.706494 z"
       style="fill:#ebe3e3;stroke-width:0.637403;paint-order:fill markers stroke"
       id="path11" />
  </g>
</svg>
